<svg xmlns="http://www.w3.org/2000/svg"  viewBox="0 0 20 20">
<style type="text/css">
	.st0{fill:#144F93;}
	
</style>
<g>
	<path class="st0" d="M10,1C7.6,1,7.2,1,6.3,1c-1,0-1.6,0.2-2.2,0.4C3.5,1.7,3,2,2.5,2.5s-0.8,1-1,1.6C1.2,4.7,1.1,5.3,1,6.3
		C1,7.2,1,7.6,1,10s0,2.8,0.1,3.7c0,1,0.2,1.6,0.4,2.2c0.2,0.6,0.5,1.1,1,1.6c0.5,0.5,1,0.8,1.6,1c0.6,0.2,1.2,0.4,2.2,0.4
		c1,0,1.3,0.1,3.7,0.1s2.8,0,3.7-0.1c1,0,1.6-0.2,2.2-0.4c0.6-0.2,1.1-0.5,1.6-1c0.5-0.5,0.8-1,1-1.6c0.2-0.6,0.4-1.2,0.4-2.2
		c0-1,0.1-1.3,0.1-3.7s0-2.8-0.1-3.7c0-1-0.2-1.6-0.4-2.2c-0.2-0.6-0.5-1.1-1-1.6c-0.5-0.5-1-0.8-1.6-1c-0.6-0.2-1.2-0.4-2.2-0.4
		C12.8,1,12.4,1,10,1z M10,2.6c2.4,0,2.7,0,3.6,0.1c0.9,0,1.4,0.2,1.7,0.3c0.4,0.2,0.7,0.4,1,0.7c0.3,0.3,0.5,0.6,0.7,1
		c0.1,0.3,0.3,0.8,0.3,1.7c0,0.9,0.1,1.2,0.1,3.6s0,2.7-0.1,3.6c0,0.9-0.2,1.4-0.3,1.7c-0.2,0.4-0.4,0.7-0.7,1
		c-0.3,0.3-0.6,0.5-1,0.7c-0.3,0.1-0.8,0.3-1.7,0.3c-0.9,0-1.2,0.1-3.6,0.1s-2.7,0-3.6-0.1c-0.9,0-1.4-0.2-1.7-0.3
		c-0.4-0.2-0.7-0.4-1-0.7c-0.3-0.3-0.5-0.6-0.7-1c-0.1-0.3-0.3-0.8-0.3-1.7c0-0.9-0.1-1.2-0.1-3.6s0-2.7,0.1-3.6
		C2.7,5.5,2.9,5,3,4.7c0.2-0.4,0.4-0.7,0.7-1s0.6-0.5,1-0.7C5,2.8,5.5,2.7,6.4,2.6C7.3,2.6,7.6,2.6,10,2.6"/>
	<path class="st0" d="M10,13c-1.7,0-3-1.3-3-3c0-1.7,1.3-3,3-3c1.7,0,3,1.3,3,3C13,11.7,11.7,13,10,13z M10,5.4
		c-2.6,0-4.6,2.1-4.6,4.6s2.1,4.6,4.6,4.6s4.6-2.1,4.6-4.6S12.6,5.4,10,5.4 M15.9,5.2c0,0.6-0.5,1.1-1.1,1.1c-0.6,0-1.1-0.5-1.1-1.1
		s0.5-1.1,1.1-1.1C15.4,4.1,15.9,4.6,15.9,5.2"/>
</g>
</svg>
