<?xml version="1.0" encoding="utf-8"?>
<!-- Generator: Adobe Illustrator 27.7.0, SVG Export Plug-In . SVG Version: 6.00 Build 0)  -->
<svg version="1.1" id="Calque_1" xmlns="http://www.w3.org/2000/svg" xmlns:xlink="http://www.w3.org/1999/xlink" x="0px" y="0px"
	 viewBox="0 0 20 20" style="enable-background:new 0 0 20 20;" xml:space="preserve">
	 <style type="text/css">
	.st0{fill:#144F93;}
	
</style>

<path class="st0" d="M16.7,16.7h-2.8v-4.4c0-1,0-2.4-1.5-2.4c-1.5,0-1.7,1.1-1.7,2.3v4.5H7.9V7.6h2.7v1.2h0c0.6-0.9,1.6-1.5,2.7-1.5
	c2.8,0,3.4,1.9,3.4,4.3V16.7z M4.7,6.4c-0.9,0-1.6-0.7-1.6-1.6s0.7-1.6,1.6-1.6s1.6,0.7,1.6,1.6S5.6,6.4,4.7,6.4L4.7,6.4 M6.1,16.7
	H3.3V7.6h2.8V16.7z M18.1,0.5H1.9c-0.8,0-1.4,0.6-1.4,1.4v16.2c0,0.8,0.6,1.4,1.4,1.4h16.2c0.8,0,1.4-0.6,1.4-1.4V1.9
	C19.5,1.1,18.9,0.5,18.1,0.5"/>
</svg>
