<svg version="1.1" id="Calque_1" xmlns="http://www.w3.org/2000/svg" xmlns:xlink="http://www.w3.org/1999/xlink" x="0px" y="0px"
	 viewBox="0 0 528.3 236.9" style="enable-background:new 0 0 528.3 236.9;" xml:space="preserve">
<style type="text/css">
	.st0{fill:#ffffff;}
	.st1{fill:#ffffff;}
</style>
<g>
	<g>
		<path class="st0" d="M184.6,174.5c0-1.4,0-2.7,0.1-4.1c0.1-1.3,0.1-2.7,0.1-4l-2.2-0.3v-0.9c0.7-0.3,1.4-0.5,2.2-0.7
			c0.7-0.2,1.5-0.4,2.2-0.5h0.8c0,1.6,0,3.3-0.1,4.9c-0.1,1.6-0.1,3.2-0.1,4.8c0,0.9,0,1.6,0.1,2.3c0.1,0.7,0.3,1.3,0.5,1.7
			c0.3,0.5,0.6,0.8,1,1.1c0.4,0.3,1,0.4,1.7,0.4c1,0,1.8-0.4,2.5-1.1c0.7-0.7,1.2-1.6,1.6-2.8v-9.1l-2.1-0.3v-0.9
			c0.7-0.3,1.4-0.5,2.1-0.7c0.7-0.2,1.5-0.4,2.2-0.5h0.8v15l2.2,0.3v0.7c-0.6,0.3-1.3,0.5-1.9,0.8c-0.6,0.2-1.3,0.4-2,0.5h-0.8
			l-0.2-3.9H195c-0.1,0.5-0.3,0.9-0.6,1.4c-0.3,0.5-0.6,0.9-1.1,1.3c-0.4,0.4-0.9,0.7-1.5,0.9c-0.6,0.2-1.2,0.4-1.8,0.4
			c-0.9,0-1.7-0.1-2.3-0.3c-0.7-0.2-1.2-0.6-1.7-1.1c-0.5-0.5-0.8-1.2-1.1-2.1C184.7,177,184.6,175.9,184.6,174.5z"/>
		<path class="st0" d="M220,181.1h-7.1v-0.8c0.6-0.3,1.2-0.6,1.9-0.8v-7.8c0-1.7-0.2-3-0.7-4c-0.5-1-1.4-1.4-2.6-1.4
			c-0.5,0-1.1,0.1-1.5,0.3c-0.5,0.2-0.9,0.5-1.3,0.8c-0.4,0.3-0.7,0.7-0.9,1.2c-0.3,0.4-0.5,0.9-0.6,1.3v9.6c0.7,0.1,1.3,0.4,2,0.8
			v0.8H202v-0.8c0.5-0.3,1.3-0.5,2.2-0.8v-12.9l-2.2-0.3v-0.9c0.6-0.2,1.2-0.5,2-0.7c0.7-0.2,1.5-0.4,2.3-0.5h0.8v3.7h0
			c0.5-1,1.1-1.9,2-2.6c0.9-0.7,1.9-1.1,3.1-1.1c0.9,0,1.7,0.1,2.4,0.3c0.7,0.2,1.3,0.6,1.7,1.1c0.5,0.5,0.8,1.2,1.1,2.1
			c0.2,0.9,0.4,2,0.4,3.4v8.3c0.9,0.2,1.6,0.4,2.2,0.8V181.1z"/>
		<path class="st0" d="M238.3,177.3c0-0.6-0.2-1.1-0.6-1.6c-0.4-0.4-0.9-0.8-1.5-1.2c-0.6-0.4-1.2-0.7-1.9-1.1
			c-0.7-0.4-1.3-0.8-1.9-1.2c-0.6-0.5-1.1-1-1.5-1.6c-0.4-0.6-0.6-1.4-0.6-2.3c0-0.6,0.1-1.1,0.4-1.6c0.3-0.5,0.6-0.9,1.1-1.3
			c0.5-0.4,1-0.6,1.6-0.9c0.6-0.2,1.3-0.3,2-0.3c1.2,0,2.2,0.1,2.9,0.2c0.8,0.1,1.5,0.3,2.2,0.6c-0.1,0.7-0.2,1.4-0.3,2.1
			c-0.1,0.7-0.3,1.4-0.5,2.2H239l-1.3-3.4c-0.3-0.1-0.6-0.2-0.9-0.2c-0.3,0-0.7,0-1,0c-0.4,0-0.7,0.1-1,0.2
			c-0.3,0.1-0.5,0.3-0.8,0.5c-0.2,0.2-0.4,0.5-0.5,0.8c-0.1,0.3-0.2,0.6-0.2,0.9c0,0.6,0.2,1.1,0.6,1.5c0.4,0.4,0.9,0.8,1.5,1.2
			c0.6,0.4,1.2,0.7,1.9,1.1s1.3,0.7,1.9,1.2c0.6,0.4,1.1,1,1.5,1.5c0.4,0.6,0.6,1.3,0.6,2.1c0,0.7-0.2,1.4-0.5,2
			c-0.3,0.6-0.8,1.1-1.3,1.5c-0.6,0.4-1.2,0.7-1.9,1c-0.7,0.2-1.5,0.3-2.4,0.3c-0.9,0-1.8-0.1-2.6-0.2c-0.8-0.2-1.6-0.4-2.5-0.7
			c0-0.8,0.1-1.6,0.3-2.3c0.2-0.7,0.4-1.4,0.6-2.1h0.8l1.4,3.6c0.2,0.2,0.5,0.3,0.9,0.3c0.3,0,0.7,0,0.9,0c1,0,1.7-0.3,2.3-0.8
			C238,178.7,238.3,178.1,238.3,177.3z"/>
		<path class="st0" d="M243.3,165.4c0.8-0.5,1.7-0.9,2.6-1.2v-2.8c0.3-0.2,0.6-0.4,1-0.6c0.4-0.2,0.8-0.4,1.1-0.5h0.8v4.3h4.9v1.7
			h-4.9v9.5c0,1.3,0.2,2.2,0.6,2.8c0.4,0.5,1,0.8,1.9,0.8c0.4,0,0.9,0,1.5-0.1c0.6-0.1,1.1-0.2,1.5-0.3l0.2,0.5
			c-0.2,0.2-0.4,0.4-0.7,0.6c-0.3,0.2-0.7,0.4-1.1,0.6c-0.4,0.2-0.9,0.4-1.3,0.5c-0.5,0.1-1,0.2-1.5,0.2c-1.3,0-2.3-0.4-3-1.1
			c-0.7-0.7-1-1.9-1-3.6v-10.4h-2.6V165.4z"/>
		<path class="st0" d="M268.6,176.8c0,0.5,0,0.9,0,1.3c0,0.4,0,0.7,0.1,1.1l2.3,0.3v0.7c-0.5,0.3-1.2,0.5-1.8,0.8
			c-0.7,0.2-1.3,0.4-1.9,0.5h-0.8c-0.2-0.5-0.4-1.1-0.4-1.7c0-0.6-0.1-1.3-0.1-2h-0.2c-0.1,0.4-0.3,0.9-0.5,1.3
			c-0.3,0.5-0.6,0.9-1,1.2c-0.4,0.4-0.9,0.6-1.4,0.9c-0.5,0.2-1.2,0.3-1.9,0.3c-1.3,0-2.4-0.4-3.3-1.2c-0.8-0.8-1.3-1.9-1.3-3.2
			c0-1,0.2-1.8,0.6-2.5c0.4-0.6,1-1.2,1.8-1.5c0.8-0.4,1.8-0.6,2.9-0.8c1.2-0.2,2.5-0.3,4.1-0.4c0.1-0.9,0.1-1.8,0.1-2.6
			c0-0.8-0.2-1.4-0.4-1.9c-0.2-0.5-0.5-1-0.9-1.3c-0.4-0.3-0.9-0.4-1.6-0.4c-0.3,0-0.7,0-1,0c-0.4,0-0.8,0.1-1.1,0.3l-1.5,4h-0.9
			c-0.2-0.7-0.4-1.3-0.6-2c-0.2-0.7-0.3-1.4-0.3-2.1c0.8-0.5,1.8-0.9,2.8-1.2c1-0.3,2.2-0.4,3.4-0.4c1.1,0,2,0.2,2.7,0.5
			c0.7,0.3,1.2,0.7,1.5,1.2c0.4,0.5,0.6,1.1,0.7,1.7c0.1,0.6,0.2,1.2,0.2,1.8c0,1.3,0,2.6-0.1,3.8
			C268.6,174.5,268.6,175.6,268.6,176.8z M262.2,179.4c0.5,0,1-0.1,1.4-0.3c0.4-0.2,0.8-0.5,1.1-0.8c0.3-0.3,0.5-0.6,0.7-0.9
			c0.2-0.3,0.3-0.6,0.4-0.8v-3.5c-1.3,0-2.3,0.1-3.1,0.2c-0.8,0.1-1.4,0.3-1.9,0.6c-0.5,0.3-0.8,0.6-1,1.1c-0.2,0.4-0.3,0.9-0.3,1.5
			c0,0.9,0.2,1.7,0.7,2.2C260.7,179.2,261.4,179.4,262.2,179.4z"/>
		<path class="st0" d="M279.8,164.2c1.2,0,2.2,0.1,3,0.3c0.8,0.2,1.5,0.6,2,1.1c1.3-0.9,2.6-1.5,4.1-1.9c0.2,0.2,0.3,0.5,0.4,0.9
			c0.1,0.4,0.1,0.7,0.1,1l-0.4,0.8h-3.5c0.5,0.8,0.8,1.8,0.8,3.1c0,1.6-0.6,2.9-1.7,3.9c-1.1,1-2.7,1.5-4.9,1.5c-0.4,0-0.8,0-1,0
			c-0.3,0-0.6-0.1-0.9-0.1c-0.1,0.2-0.2,0.4-0.4,0.7c-0.1,0.2-0.2,0.5-0.2,0.8c0,0.4,0.3,0.8,0.8,1c0.5,0.3,1.1,0.5,1.9,0.7
			c0.8,0.2,1.6,0.4,2.5,0.6c0.9,0.2,1.7,0.5,2.5,0.9c0.8,0.4,1.4,0.8,1.9,1.4c0.5,0.6,0.8,1.3,0.8,2.3c0,0.8-0.2,1.5-0.5,2.1
			c-0.4,0.6-0.9,1.2-1.6,1.6c-0.7,0.4-1.5,0.8-2.5,1c-1,0.2-2,0.3-3.1,0.3c-2.4,0-4.2-0.4-5.4-1.2c-1.2-0.8-1.8-1.8-1.8-3.1
			c0-0.6,0.1-1.1,0.3-1.5c0.2-0.4,0.5-0.8,0.8-1.2c0.4-0.3,0.8-0.6,1.3-0.9c0.5-0.3,1.1-0.5,1.8-0.7c-0.5-0.2-0.9-0.5-1.2-0.9
			c-0.3-0.4-0.5-0.9-0.5-1.4c0-0.5,0.2-1,0.6-1.5c0.4-0.5,0.9-0.9,1.3-1.2c-1.3-0.3-2.2-1-2.9-1.9c-0.7-0.9-1-2-1-3.1
			c0-0.7,0.1-1.4,0.4-2.1c0.3-0.6,0.7-1.2,1.3-1.7c0.5-0.5,1.2-0.9,2-1.1C277.8,164.3,278.8,164.2,279.8,164.2z M284.7,183.7
			c0-0.7-0.2-1.3-0.7-1.7c-0.5-0.4-1.1-0.8-1.8-1c-0.7-0.3-1.5-0.5-2.3-0.7c-0.8-0.2-1.6-0.4-2.3-0.6c-0.8,0.5-1.4,1-1.6,1.6
			c-0.3,0.6-0.4,1.1-0.4,1.7c0,1.2,0.4,2,1.3,2.6c0.8,0.6,2,0.9,3.6,0.9c0.8,0,1.5-0.1,2-0.2c0.5-0.2,1-0.4,1.3-0.6
			c0.3-0.3,0.5-0.6,0.7-0.9C284.6,184.5,284.7,184.1,284.7,183.7z M276.2,169.5c0,0.5,0.1,1,0.2,1.5c0.1,0.5,0.3,0.9,0.6,1.2
			c0.3,0.4,0.6,0.6,1.1,0.8c0.5,0.2,1,0.3,1.7,0.3c1.3,0,2.2-0.4,2.7-1.1c0.5-0.7,0.8-1.7,0.8-2.8c0-1.2-0.3-2.1-0.8-2.8
			c-0.5-0.7-1.5-1-2.8-1c-1.3,0-2.3,0.3-2.8,1C276.5,167.3,276.2,168.3,276.2,169.5z"/>
		<path class="st0" d="M303.7,178.8c-0.2,0.4-0.5,0.7-0.8,1.1c-0.4,0.3-0.8,0.6-1.3,0.9c-0.5,0.2-1,0.4-1.6,0.6
			c-0.6,0.1-1.2,0.2-1.7,0.2c-1.3,0-2.4-0.2-3.4-0.6c-1-0.4-1.8-1-2.5-1.7c-0.7-0.8-1.2-1.7-1.5-2.7c-0.3-1.1-0.5-2.2-0.5-3.6
			c0-2.8,0.6-5,1.9-6.4c1.3-1.5,3.1-2.2,5.5-2.2c0.8,0,1.5,0.1,2.3,0.3c0.7,0.2,1.4,0.6,2,1c0.6,0.5,1.1,1.1,1.4,1.9
			c0.4,0.8,0.5,1.8,0.5,3c0,0.4,0,0.8,0,1.1c0,0.4-0.1,0.8-0.2,1.2h-10.3c0,0.9,0.1,1.8,0.3,2.6c0.2,0.8,0.6,1.5,1,2.1
			c0.5,0.6,1,1.1,1.7,1.4c0.7,0.3,1.5,0.5,2.5,0.5c0.8,0,1.5-0.1,2.3-0.3c0.8-0.2,1.4-0.5,1.8-0.9L303.7,178.8z M297.7,165.6
			c-1.3,0-2.2,0.4-2.9,1.3c-0.7,0.8-1.1,2.3-1.2,4.5h7.2c0-0.2,0-0.4,0-0.6c0-0.2,0-0.4,0-0.5c0-1.4-0.3-2.5-0.8-3.4
			C299.6,166.1,298.8,165.6,297.7,165.6z"/>
		<path class="st0" d="M328.3,178.8c-0.2,0.4-0.5,0.7-0.8,1.1c-0.4,0.3-0.8,0.6-1.3,0.9c-0.5,0.2-1,0.4-1.6,0.6
			c-0.6,0.1-1.2,0.2-1.7,0.2c-1.3,0-2.4-0.2-3.4-0.6c-1-0.4-1.8-1-2.5-1.7c-0.7-0.8-1.2-1.7-1.5-2.7c-0.3-1.1-0.5-2.2-0.5-3.6
			c0-2.8,0.6-5,1.9-6.4c1.3-1.5,3.1-2.2,5.5-2.2c0.8,0,1.5,0.1,2.3,0.3c0.7,0.2,1.4,0.6,2,1c0.6,0.5,1.1,1.1,1.4,1.9
			c0.4,0.8,0.5,1.8,0.5,3c0,0.4,0,0.8,0,1.1c0,0.4-0.1,0.8-0.2,1.2h-10.3c0,0.9,0.1,1.8,0.3,2.6c0.2,0.8,0.6,1.5,1,2.1
			c0.5,0.6,1,1.1,1.7,1.4c0.7,0.3,1.5,0.5,2.5,0.5c0.8,0,1.5-0.1,2.3-0.3c0.8-0.2,1.4-0.5,1.8-0.9L328.3,178.8z M322.3,165.6
			c-1.3,0-2.2,0.4-2.9,1.3c-0.7,0.8-1.1,2.3-1.2,4.5h7.2c0-0.2,0-0.4,0-0.6c0-0.2,0-0.4,0-0.5c0-1.4-0.3-2.5-0.8-3.4
			C324.2,166.1,323.4,165.6,322.3,165.6z"/>
		<path class="st0" d="M330.7,165.4c0.8-0.5,1.7-0.9,2.6-1.2v-2.8c0.3-0.2,0.6-0.4,1-0.6c0.4-0.2,0.8-0.4,1.1-0.5h0.8v4.3h4.9v1.7
			h-4.9v9.5c0,1.3,0.2,2.2,0.6,2.8c0.4,0.5,1,0.8,1.9,0.8c0.4,0,0.9,0,1.5-0.1c0.6-0.1,1.1-0.2,1.5-0.3l0.2,0.5
			c-0.2,0.2-0.4,0.4-0.7,0.6c-0.3,0.2-0.7,0.4-1.1,0.6c-0.4,0.2-0.9,0.4-1.3,0.5c-0.5,0.1-1,0.2-1.5,0.2c-1.3,0-2.3-0.4-3-1.1
			c-0.7-0.7-1-1.9-1-3.6v-10.4h-2.6V165.4z"/>
		<path class="st0" d="M363.9,176.8c0,0.5,0,0.9,0,1.3c0,0.4,0,0.7,0.1,1.1l2.3,0.3v0.7c-0.5,0.3-1.2,0.5-1.8,0.8
			c-0.7,0.2-1.3,0.4-1.9,0.5h-0.8c-0.2-0.5-0.4-1.1-0.4-1.7c0-0.6-0.1-1.3-0.1-2H361c-0.1,0.4-0.3,0.9-0.5,1.3
			c-0.3,0.5-0.6,0.9-1,1.2c-0.4,0.4-0.9,0.6-1.4,0.9c-0.5,0.2-1.2,0.3-1.9,0.3c-1.3,0-2.4-0.4-3.3-1.2c-0.8-0.8-1.3-1.9-1.3-3.2
			c0-1,0.2-1.8,0.6-2.5c0.4-0.6,1-1.2,1.8-1.5c0.8-0.4,1.8-0.6,2.9-0.8c1.2-0.2,2.5-0.3,4.1-0.4c0.1-0.9,0.1-1.8,0.1-2.6
			c0-0.8-0.2-1.4-0.4-1.9c-0.2-0.5-0.5-1-0.9-1.3c-0.4-0.3-0.9-0.4-1.6-0.4c-0.3,0-0.7,0-1,0c-0.4,0-0.8,0.1-1.1,0.3l-1.5,4h-0.9
			c-0.2-0.7-0.4-1.3-0.6-2c-0.2-0.7-0.3-1.4-0.3-2.1c0.8-0.5,1.8-0.9,2.8-1.2c1-0.3,2.2-0.4,3.4-0.4c1.1,0,2,0.2,2.7,0.5
			c0.7,0.3,1.2,0.7,1.5,1.2c0.4,0.5,0.6,1.1,0.7,1.7c0.1,0.6,0.2,1.2,0.2,1.8c0,1.3,0,2.6-0.1,3.8
			C363.9,174.5,363.9,175.6,363.9,176.8z M357.5,179.4c0.5,0,1-0.1,1.4-0.3c0.4-0.2,0.8-0.5,1.1-0.8c0.3-0.3,0.5-0.6,0.7-0.9
			c0.2-0.3,0.3-0.6,0.4-0.8v-3.5c-1.3,0-2.3,0.1-3.1,0.2c-0.8,0.1-1.4,0.3-1.9,0.6c-0.5,0.3-0.8,0.6-1,1.1c-0.2,0.4-0.3,0.9-0.3,1.5
			c0,0.9,0.2,1.7,0.7,2.2C356,179.2,356.7,179.4,357.5,179.4z"/>
		<path class="st0" d="M375.4,187.7h-7.3v-0.8c0.7-0.4,1.5-0.6,2.2-0.8v-19.5l-2.2-0.3v-0.9c0.7-0.3,1.4-0.6,2.2-0.7
			c0.7-0.2,1.5-0.3,2.2-0.4h0.8v3.7h0c0.4-1.1,1.1-2,1.8-2.7c0.8-0.7,1.8-1,3.1-1c2,0,3.5,0.6,4.5,1.9s1.6,3.4,1.6,6.3
			c0,1.4-0.2,2.6-0.5,3.8c-0.4,1.1-0.9,2.1-1.5,2.8c-0.7,0.8-1.5,1.4-2.4,1.8c-1,0.4-2,0.6-3.2,0.6c-0.8,0-1.4,0-1.9-0.1
			c-0.5-0.1-1-0.3-1.5-0.5v5.2c0.4,0,0.7,0.1,1.1,0.2c0.4,0.1,0.7,0.3,1.1,0.5V187.7z M377.1,166.2c-1.1,0-1.9,0.3-2.6,1
			s-1.1,1.6-1.4,2.8v9.2c0.4,0.2,0.8,0.4,1.3,0.5c0.5,0.1,1.1,0.2,1.9,0.2c0.7,0,1.4-0.2,2-0.6c0.6-0.4,1.1-0.9,1.5-1.6
			c0.4-0.7,0.7-1.5,0.9-2.4c0.2-0.9,0.3-1.9,0.3-3c0-0.9-0.1-1.7-0.2-2.5c-0.1-0.8-0.4-1.4-0.7-2c-0.3-0.6-0.7-1-1.3-1.3
			C378.5,166.4,377.9,166.2,377.1,166.2z"/>
		<path class="st0" d="M393.7,167.1c-0.2,0.1-0.5,0.4-0.9,0.8c-0.4,0.4-0.7,1-1,1.8v9.8c0.4,0,0.9,0.1,1.3,0.2
			c0.4,0.1,0.9,0.3,1.3,0.5v0.8h-7.8v-0.8c0.4-0.2,0.8-0.4,1.1-0.5c0.4-0.1,0.7-0.2,1.1-0.3v-12.9l-2.2-0.3v-0.9
			c0.7-0.3,1.4-0.6,2.2-0.7c0.7-0.2,1.5-0.3,2.1-0.4h0.8v3.5h0.1c0.2-0.4,0.5-0.9,0.8-1.3c0.4-0.4,0.8-0.8,1.3-1.2
			c0.5-0.4,1-0.6,1.5-0.8c0.6-0.2,1.1-0.2,1.7-0.2c0.2,0.3,0.3,0.6,0.4,0.9c0.1,0.3,0.2,0.7,0.3,1.1v0.9H393.7z"/>
		<path class="st0" d="M413,178.8c-0.2,0.4-0.5,0.7-0.8,1.1c-0.4,0.3-0.8,0.6-1.3,0.9c-0.5,0.2-1,0.4-1.6,0.6
			c-0.6,0.1-1.2,0.2-1.7,0.2c-1.3,0-2.4-0.2-3.4-0.6c-1-0.4-1.8-1-2.5-1.7c-0.7-0.8-1.2-1.7-1.5-2.7c-0.3-1.1-0.5-2.2-0.5-3.6
			c0-2.8,0.6-5,1.9-6.4c1.3-1.5,3.1-2.2,5.5-2.2c0.8,0,1.5,0.1,2.3,0.3c0.7,0.2,1.4,0.6,2,1c0.6,0.5,1.1,1.1,1.4,1.9
			c0.4,0.8,0.5,1.8,0.5,3c0,0.4,0,0.8,0,1.1c0,0.4-0.1,0.8-0.2,1.2h-10.3c0,0.9,0.1,1.8,0.3,2.6c0.2,0.8,0.6,1.5,1,2.1
			c0.5,0.6,1,1.1,1.7,1.4c0.7,0.3,1.5,0.5,2.5,0.5c0.8,0,1.5-0.1,2.3-0.3c0.8-0.2,1.4-0.5,1.8-0.9L413,178.8z M409,161.5l-0.7,0.6
			l-6.1-4.9v-0.7c0.1-0.1,0.3-0.2,0.6-0.3c0.3-0.1,0.6-0.2,1-0.2c0.4-0.1,0.7-0.1,1-0.1c0.3,0,0.6,0,0.7,0L409,161.5z M407,165.6
			c-1.3,0-2.2,0.4-2.9,1.3c-0.7,0.8-1.1,2.3-1.2,4.5h7.2c0-0.2,0-0.4,0-0.6c0-0.2,0-0.4,0-0.5c0-1.4-0.3-2.5-0.8-3.4
			C408.9,166.1,408.1,165.6,407,165.6z"/>
		<path class="st0" d="M424.6,177.3c0-0.6-0.2-1.1-0.6-1.6s-0.9-0.8-1.5-1.2c-0.6-0.4-1.2-0.7-1.9-1.1c-0.7-0.4-1.3-0.8-1.9-1.2
			c-0.6-0.5-1.1-1-1.5-1.6c-0.4-0.6-0.6-1.4-0.6-2.3c0-0.6,0.1-1.1,0.4-1.6c0.3-0.5,0.6-0.9,1.1-1.3c0.5-0.4,1-0.6,1.6-0.9
			c0.6-0.2,1.3-0.3,2-0.3c1.2,0,2.2,0.1,2.9,0.2c0.8,0.1,1.5,0.3,2.2,0.6c-0.1,0.7-0.2,1.4-0.3,2.1c-0.1,0.7-0.3,1.4-0.5,2.2h-0.8
			l-1.3-3.4c-0.3-0.1-0.6-0.2-0.9-0.2c-0.3,0-0.7,0-1,0c-0.4,0-0.7,0.1-1,0.2c-0.3,0.1-0.5,0.3-0.8,0.5c-0.2,0.2-0.4,0.5-0.5,0.8
			c-0.1,0.3-0.2,0.6-0.2,0.9c0,0.6,0.2,1.1,0.6,1.5c0.4,0.4,0.9,0.8,1.5,1.2c0.6,0.4,1.2,0.7,1.9,1.1c0.7,0.4,1.3,0.7,1.9,1.2
			c0.6,0.4,1.1,1,1.5,1.5c0.4,0.6,0.6,1.3,0.6,2.1c0,0.7-0.2,1.4-0.5,2c-0.3,0.6-0.8,1.1-1.3,1.5c-0.6,0.4-1.2,0.7-1.9,1
			c-0.7,0.2-1.5,0.3-2.4,0.3c-0.9,0-1.8-0.1-2.6-0.2c-0.8-0.2-1.6-0.4-2.5-0.7c0-0.8,0.1-1.6,0.3-2.3c0.2-0.7,0.4-1.4,0.6-2.1h0.8
			l1.4,3.6c0.2,0.2,0.5,0.3,0.9,0.3c0.3,0,0.7,0,0.9,0c1,0,1.7-0.3,2.3-0.8C424.3,178.7,424.6,178.1,424.6,177.3z"/>
	</g>
	<path class="st0" d="M140.8,152.7c-3.9,2.5-10.5,6.6-18.4,10c-20,7.8-42.8,4.2-56.5,0.7c0,0,0,0,0,0c-13.1-3.7-21.9-11.6-22.9-12.6
		c-11.2-12.3-11.6-26.7-10.3-36c0.6-2.9,1.3-6,2.3-9.4c0,0,3-9.2,17.9-20.5s29.2-18.1,32.1-32.4c0,0,2-8.1-3.4-2
		c0,0-11.3,14.9-37,31.8c-25.7,16.9-25.4,42.7-24.9,45.9S20,149.8,43,167.8c23,18,65.1,12.7,77.5,5.9c0,0,23.6-8.3,33.9-32.7
		C154.4,141.1,149.1,147.5,140.8,152.7z"/>
	<g>
		<path class="st1" d="M253,112.3c-0.4-0.5-0.9,0-1.2,0.5c-2.7,1.6-5,3.6-7.4,5.6c-1.1,0.7-2.2,1.4-3.2,2.1
			c-2.2,1.5-4.7,1.1-5.9-0.7c0,0,0,0,0,0c-0.1-0.2-0.2-0.3-0.3-0.5c-1.6-3.1-0.4-8.5-0.4-8.5c0.6-2.3,1.3-4.5,1.9-6.8
			c0.4-1.8,0.9-3.5,1.3-5.3c0,0,0,0,0,0c0,0,0,0,0,0c1.9-6.9,3.9-13.7,5.8-20.6c0.4-1.1,0.7-2.2,1.1-3.2c0,0,0,0,0,0
			c2.1-4.8,3.8-9.8,6.5-14.3c1.5-2.5,1.2-4.3-1.5-5.6c-1.7-0.6-3.4-0.9-5-0.9c-0.1,0-0.3,0-0.4,0C231.2,54.4,229.2,67,229.2,67
			c-1,2.6-1.8,5.4-2.8,8c-3.4,9-6.1,18.4-12.8,25.8c-3.6,4-7.8,7.4-11.7,11.1c-0.9,0.6-1.7,1.2-2.6,1.8c-0.2,0.1-0.4,0.3-0.7,0.5
			c-0.2,0.1-0.3,0.2-0.5,0.4c-3.5,2.3-2.4-3.6-2.2-4.9c2.3-10.1,5.8-19.9,8.3-29.9c0.5-1.9,1-3.8,1.4-5.7h0l0-0.1
			c0-0.2,0.1-0.3,0.1-0.5l1-6.2c0-0.2,0.1-0.4,0.1-0.6l0,0c0.1-1.2,0-2.3-1-3.2c-1.8-1.6-4.4-1.8-6.6,0.2c-1.6,0.9-2.1,2.5-2.7,4
			c-4.4,10.2-8.7,20.4-13.1,30.6c0,0-5.8,12.2,3.3,24.5c0,0,0,0,0,0c0.9,1.5,1.6,1.9,2.7,3.3c0,0,1.2,1.3,2.5,1.8
			c3.6,2.2,6.9,1.8,9.2,1c1.4-0.2,2.5-0.9,3.5-2c3.5-3,7.1-6,10.5-9c4.1-3.5,4.1-3.6,6.4,1.5c0.6,1.2,1.1,2.4,1.6,3.6
			c2.4,5,6.9,6.8,11.9,7.8c0,0,6.5,1.3,11.1-2.3c0,0,0.1-0.1,0.1-0.1c0.9-0.7,1.6-1.7,2.1-2.9c1.5-2.6,3.3-5,4.1-7.9c0,0,0,0,0,0
			c0.3-0.9,0.6-2.8,0.8-3.5c0-0.1,0-0.1,0-0.2c0-0.1,0-0.1,0-0.1l0,0C253.3,113.1,253.3,112.7,253,112.3z"/>
		<path class="st1" d="M309.3,41.2c-4.5-2.7-9.1-5.1-14.1-6.8c-1-0.4-2.1-0.7-3.1-0.9c-0.6-0.2-1.3-0.2-2.2-0.2c-0.1,0-0.3,0-0.4,0
			c0,0,0,0-0.1,0c-11.4,1-12.5,16.8-12.5,16.8l0,0c-0.7,2.6-1,5.3-0.8,8c0.7,12.8,2.1,25.6,3.9,38.3c0,0.8,0.1,1.7,0.1,2.5
			c0,0,0,0,0,0c0,4,0,7.9,0,11.9c0,0,0,0,0,0c0,0.6-0.1,1.1-0.1,1.7c-0.3,1.4-0.3,2.2-0.6,3.5c0,0,0,0,0,0c-0.8,3.3-1.7,6.6-2.5,9.9
			c-0.3,1.3-0.8,1.7-1.7,1.2c-0.2-0.1-0.3-0.2-0.6-0.4c-0.5-0.4-1-0.8-1.4-1.3c-3.7-5.2-3.3-21-3.1-25.1c0-0.1,0-0.1,0-0.2
			c0,0.4,0-0.8,0-0.8c-0.1-1.2-0.1-2.5-0.2-3.7c0-0.8,0.4-1.9-0.6-2.2c-0.8-0.2-1.6,0.4-2.1,1.2c-2.6,4-5.3,7.8-7.4,12
			c-3.6,7.2-3.5,14.3,0.3,21.4c2,3.8,5,7,7.3,10.5c1.9,2.2,3.5,4.7,6.2,5.9l0,0c0,0,5.4,3.9,10.7,0.1c0.1,0,9.4-4.6,8.8-27
			c0,0,0-0.1,0-0.1c0.2-7.8-0.9-15.7-1.7-23.5c-0.1-1.3-0.1-2.5-0.2-3.8c0,0,0,0,0,0c0,0,0,0,0,0c-0.4-3.4-0.5-6.8-0.9-10.1
			c0,0,0-0.1,0-0.1c-0.9-10.3,0.2-19.6,0.2-19.6c1.2-5.3,3-10.3,8-13.3c2.2-1.5,2.9-1,2.6,1.7c-0.5,4.4-0.7,8.7-1.1,13.7
			c5.3-3.6,9.7-7.3,12-13C313.7,45.5,313,43.5,309.3,41.2z"/>
		<path class="st1" d="M362.5,60.4C362.5,60.4,362.5,60.4,362.5,60.4C362.5,60.4,362.5,60.4,362.5,60.4c-0.5-4.4-3.6-6.5-7.4-7.9
			c-2.6-0.4-5.1-0.6-7.7-0.5c0,0-0.1,0-0.1,0c-4.3,0-8.2,1.5-10.8,2.9c-0.1,0-0.2,0.1-0.3,0.2c-2.1,1.2-3.3,2.2-3.3,2.2l0,0
			c-11.8,8.3-17.9,20.4-21.4,34.4c-0.1,0.4-0.2,0.7-0.2,1.1c0,0,0,0,0,0c-1.5,6.5-1.5,13,0.1,19.4c0.1,0.2,0.1,0.5,0.2,0.7
			c0,0,0,0,0,0c0,0,0,0,0,0c1.7,9.9,7.5,15.9,16.4,17.1c2.6,0.4,5.3,0.5,7.9,0h0c1.4-0.3,2.7-0.6,4.1-1c4.5-1.2,7.5-4.1,9.3-8.4
			c0.6-1.2,0.7-2.2,0-2.9c-0.3-0.4-4.7,0.7-4.7,0.7c-2.5,0.1-5,0.2-7.4,0.4c0,0,0,0,0,0c-6.5,0.3-9.3-2.7-9.3-2.7v0
			c-2.4-3.9-0.7-7.6-0.7-7.6c0.2-0.5,0.4-0.8,0.6-1c0,0,0,0,0,0c0.9,0.6,1.7,1.2,2.1,1.5c0,0,0,0,0,0c0.1,0.1,0.1,0.1,0.2,0.1
			c1,0.6,1.9,0.8,2.9,0.6l0,0c0,0,0,0,0,0c0.4-0.1,0.7-0.3,1-0.5c1-0.5,2.4-1.3,3.8-2.4c0,0,0,0,0.1-0.1c5.6-4,9.6-9.6,13.7-15
			c0,0,1.3-1.6,2.4-3.6v0c0,0,0.1-0.1,0.2-0.3c0-0.1,0.1-0.2,0.1-0.2c0.9-1.5,3.4-6.1,3.7-7.7c0,0,0,0,0,0c2.1-4.8,3.6-9.9,4.4-15.2
			C362.7,63.1,362.8,62,362.5,60.4z M347.9,68.2L347.9,68.2c0,0-0.3,1.9-0.8,3.7c-0.2,0.6-0.5,1.2-0.7,1.8
			c-3.9,7.7-8.2,15.1-14.6,21c-0.8,0.7-1.7,1.5-2.6,2c-1.6,1-1.4,0-1.2-0.8l0,0l0.1-0.6c0.4-1.5,0.6-1.4,0.6-2.2
			c3.2-8.6,6.8-17,13.7-23.5c1.6-1.5,3.2-2.8,5.1-3.9C348,66.6,348,67.4,347.9,68.2z"/>
		<path class="st1" d="M425.4,61.8c-3.6-0.9-6.9-3.3-10.8-1.4c-2.9,1.4-5.5,2-8.2-0.7c-0.9-1.4-2.5-1.4-2.5-1.4
			c-10.6-1.2-18.1,3.6-22.9,8.8c0,0,0,0,0,0c-6.6,6.4-11.2,17.7-11.2,17.7l0,0c-3.4,6.5-5.7,13.4-6.4,21.1
			c-0.5,5.3-0.5,10.4,1.9,14.7l0,0c0,0,6.9,15.6,23.2,3.7c0,0,0,0,0,0c0,0,0,0,0,0c2.1-1.6,3.5-2.8,4.2-3.7c1.2-0.9,2.1-2,3.1-3
			c2.7-2.8,2.7-2.8,5.2-0.1c1.2,1.8,2.5,3.7,3.7,5.5c1.3,1.3,2.4,2.9,4.1,3.8c3.7,2.2,7.4,3.6,11.7,1.6c0.8-0.4,1.7-0.6,1.8-1.6
			c0.1-1-0.5-1.6-1.5-1.9c-2-0.7-3.3-1.9-4.2-3.5c-1.7-5.1-0.1-22.4,0-23.5c0.2-1.4,0.4-2.8,0.6-4.2c0.3-1,0.5-2.1,0.8-3.1
			c0.1,0,0.1-0.1,0.1-0.3c0-0.1,0-0.1,0-0.1c0.3-1,0.6-2,1-3.1h0c1.3-3.5,2.7-7.1,4-10.6c1.3-2.8,2.6-5.7,3.4-8.8
			C427.2,65.5,427.9,63.2,425.4,61.8z M384.6,112.6c-1.8,1.4-3.5,1.4-4.7-1c-1.4-2.6-1-5.4-0.7-8.1c0.2-1.9,0.6-3.7,1.1-5.5
			c0.1-0.3,3.6-9.4,9.9-17.8c0.3-0.4,0.6-0.7,0.9-1.2c2-2.5,4.2-4.9,6.6-6.9c2.1-1.5,4.4-2.8,6.8-3.9c0.6-0.3,1.2-0.6,1.7,0.2
			c-0.2,1.5-0.3,3.1-0.5,4.6c-0.1,0.4-0.1,0.8-0.2,1.2l0,0c-1.2,4.5-2.3,9-3.5,13.6c-2.6,10-7.1,15.5-7.8,16.3
			C391.3,107.3,388,110,384.6,112.6z"/>
		<path class="st1" d="M156.9,106.3C156.9,106.3,156.9,106.3,156.9,106.3C156.9,106.3,156.9,106.3,156.9,106.3
			c-15.3-0.1-30.6-0.1-45.8-0.2c-5.2,0-6,0-7.1-3.3c0,0,0,0,0,0c-0.5-4.9,0.6-6.3,1.3-6.8c1.4-0.5,2.9-0.7,4.4-0.7
			c14.8,0,29.6,0,44.4-0.1c1,0,2.3,0.6,2.9-0.8c0.9-2.2-1.7-7.9-4-8.7c0,0-13.3-2.5-38.9-0.3s-18.4,17.4-18.4,17.4
			c-0.1,3.3-3,3.5-5.1,4.6c-0.8,0.3-1.6,0.6-2.5,0.8c-3.3,1.1-6.7,2.1-9.9,3.3c-1.8,0.6-3.4,1.7-3.3,4c-0.3,2-0.2,3.9,0,5.9
			c0.3,3.7-1.5,5.6-4.9,6.6c-0.7,0.2-1.5,0.5-2.2,0.7c-5.5,1.9-10.3,3.7-12.9,4.6c-0.7,0.2-1.4,0.4-1.9,0.7c0,0,0,0,0,0l0,0
			c-1.9,1-3.1,2.7-3.2,5.3c0,1.2-0.1,2.3-0.1,3.5l0,0c0,0-0.1,5.1,1.7,6.6c0,0,0,0,0.1,0c0.5,0.4,1.4,0.7,3.4,1.1c0,0,0.3,0.1,0.6,0
			c0,0,0,0,0,0c0.4,0,0.7-0.3,0.8-0.8l0,0l0,0c0-0.2,0.1-0.5,0.1-0.8c0,0,0-0.1,0-0.1l0-0.7c0.1-0.4,0.1-0.9,0.1-1.3
			c0-1.9-0.1-3.7,0.4-5.5c0.3-3.1,2.6-3.5,5-3.5c4.3-0.1,8.6,0,12.9,0c21.4,0,42.7,0.1,64.1,0c5.6,0,10.2-3,11.8-7.3l0,0
			c0,0,0.6-1.4,0.6-1.9c0.4-2.3-3.7-2-3.7-2v0c-20.4,0-40.8,0-61.2,0c-2,0-4,0-5.1-2.1c0-1.5-0.1-3.1-0.1-4.6c0-4.8,0.6-5.4,5.3-5.4
			c21.5,0,43,0,64.5,0c5.3,0,5.4-0.1,6.5-5.3C157.4,108.4,158.5,107.1,156.9,106.3z"/>
		<path class="st0" d="M90.5,52.1c0.1,0.1,0.2,0.3,0.3,0.4c1,1.1,2.1,1.8,3.2,2.2c0.4,0.2,0.8,0.3,1.3,0.4c0.7,0.1,1.4,0.1,2.1,0.1
			c0,0,0,0,0,0c0,0,0,0,0,0c1.9-0.2,3.7-1.1,5.1-2.3l0,0l0.2-0.1c0.1-0.1,0.3-0.3,0.4-0.4l1-0.9c0.3-0.2,0.6-0.5,0.9-0.8
			c0,0,3.7-3.7,4.7-8.1c0,0,0,0,0,0c0.3-1,0.4-2,0.4-2.7c0,0,0-0.1,0-0.1c0.2-1.6-0.6-2-2-1.4c-4,1.6-8,3.3-12,4.9
			C96,43.2,87.1,47.6,90.5,52.1z"/>
		<path class="st0" d="M86.7,72.9c2.8,0.8,4.6,0.1,7.3-0.5c0,0,8.9-2.4,10.5-8.4c0.5-1.7-0.1-2.8-1.8-2.7c-5.9,0.2-12-1.4-17.8,1.2
			c-2.1,0.8-2.7,3.2-2.7,3.2C81.5,69.7,82.8,71.7,86.7,72.9z"/>
		<path class="st0" d="M70.5,96.3c-2.5-2.5-5.3-4.9-8-7.2c-2.1-1.8-4.6-2.4-7.3-0.9c-1.2,0.9-2,2-2.6,3.4c-1.1,2.6-0.2,4.8,1.5,6.9
			c4.6,5.7,10.5,8,17.6,7.5c0,0,3.6,0.1,5.5-0.8c0.1-0.1,0.3-0.1,0.4-0.2c0.1-0.1,0.2-0.1,0.2-0.2c0.1-0.1,0.1-0.3,0.2-0.4
			c0.2-0.7-0.2-1.1-0.6-1.4v0C75.7,101.3,70.5,96.3,70.5,96.3z"/>
		<path class="st0" d="M93,85.2c1.2-1.3,0.9-2.6-0.8-3.3c-6.4-2.5-12.3-6.6-19.4-6.8c-2.6-0.2-4.1,1.7-4.1,1.7
			c-2.5,3.4-1.9,5.8,1.9,8.6c2.7,2,4.9,2.1,8,2.8C78.6,88.3,89,90.1,93,85.2z"/>
		<path class="st0" d="M71.1,45.2C71.1,45.2,71.1,45.2,71.1,45.2C71.1,45.3,71.1,45.3,71.1,45.2c0.4,0.6,0.9,1.1,1.4,1.5
			c0.3,0.3,0.7,0.6,1.1,0.7c1,0.6,2.3,0.9,3.8,0.9c0.2,0,0.4,0,0.5,0c5.5-0.4,3-10,3-10c-1.4-4.1-2.7-8.2-4.1-12.3
			c-0.5-1.4-1.3-1.7-2.4-0.5c0,0,0,0-0.1,0.1c-0.5,0.4-1.2,1.2-1.8,2.1c0,0,0,0,0,0c-2.7,3.6-3,8.8-3,8.8c0,0.4,0,0.8,0,1.2l0,1.3
			c0,0.2,0,0.4,0,0.6l0,0.2l0,0C69.4,41.7,70,43.7,71.1,45.2z"/>
		<path class="st0" d="M87.7,40.8c0.2,0,0.3,0,0.5,0c1.5,0,2.7-0.4,3.8-0.9c0.4-0.1,0.8-0.4,1.1-0.7c0.5-0.4,1-0.9,1.4-1.5
			c0,0,0,0,0,0c0,0,0,0,0,0c1.1-1.6,1.6-3.5,1.7-5.4l0,0l0-0.2c0-0.2,0-0.4,0-0.6l0-1.3c0-0.4,0-0.8,0-1.2c0,0-0.3-5.2-3-8.8
			c0,0,0,0,0,0c-0.6-0.9-1.3-1.6-1.8-2.1c0,0,0,0-0.1-0.1c-1-1.2-1.9-0.8-2.4,0.5c-1.4,4.1-2.8,8.2-4.1,12.3
			C84.7,30.8,82.2,40.3,87.7,40.8z"/>
		<path class="st0" d="M56.7,51.2c0,0.2,0,0.4,0,0.6l0,0.2l0,0c0.1,2,0.8,4,2,5.7c0,0,0,0,0,0c0,0,0,0,0,0c0.4,0.6,1,1.2,1.6,1.7
			c0.4,0.4,0.7,0.7,1.2,0.8c1.1,0.6,2.4,1.1,4,1.2c0.2,0,0.4,0,0.5,0c5.7-0.1,2.6-10.4,2.6-10.4c-1.7-4.4-3.3-8.8-5-13.2
			c-0.6-1.5-1.5-1.9-2.5-0.7c0,0,0,0-0.1,0.1c-0.5,0.4-1.2,1.2-1.7,2.1c0,0,0,0,0,0c-2.6,3.7-2.6,9.1-2.6,9.1c0,0.4,0,0.8,0,1.2
			L56.7,51.2z"/>
		<path class="st0" d="M52.1,72.1c6,0.1,2.3-11,2.3-11c-1.9-4.7-3.8-9.5-5.8-14.2c-0.7-1.6-1.6-2-2.7-0.8c0,0,0,0-0.1,0.1
			c-0.5,0.4-1.2,1.2-1.8,2.1c0,0,0,0,0,0c-2.6,3.8-2.5,9.6-2.5,9.6c0,0.4,0,0.9,0.1,1.3l0.1,1.5c0,0.2,0,0.4,0,0.6l0,0.2l0,0
			c0.2,2.1,1,4.3,2.3,6.2c0,0,0,0,0,0c0,0,0,0,0,0c0.5,0.7,1.1,1.3,1.7,1.8c0.4,0.4,0.8,0.7,1.3,0.9c1.2,0.7,2.6,1.2,4.2,1.4
			C51.7,72.1,51.9,72.1,52.1,72.1z"/>
		<path class="st0" d="M33.4,53.9c0,0-0.4-1-1.1-0.9c-0.2,0-0.3,0.1-0.4,0.1c-0.1,0-0.1,0.1-0.2,0.2c-0.1,0.1-0.2,0.2-0.3,0.4
			c-1.3,1.9-2.1,5.7-2.1,5.7c-2.2,7.6-1.8,14.4,1.9,20.5c1.4,2.3,3,3.6,5.5,3c1.3-0.4,2.5-1,3.5-2.1c1.9-2.5,2.1-5.3,1.1-8
			C41.3,72.8,34.5,60.2,33.4,53.9z"/>
	</g>
</g>
			</svg>