<?xml version="1.0" encoding="utf-8"?>
<!-- Generator: Adobe Illustrator 27.7.0, SVG Export Plug-In . SVG Version: 6.00 Build 0)  -->
<svg version="1.1" id="Calque_1" xmlns="http://www.w3.org/2000/svg" xmlns:xlink="http://www.w3.org/1999/xlink" x="0px" y="0px"
	 viewBox="0 0 20 20" style="enable-background:new 0 0 20 20;" xml:space="preserve">
<style type="text/css">
	.st0{fill:#FFFFFF;}
</style>
<path class="st0" d="M19.1,5.4c-0.2-0.8-0.9-1.5-1.7-1.7C15.9,3.3,10,3.3,10,3.3s-5.9,0-7.4,0.4C1.8,4,1.2,4.6,0.9,5.4
	C0.5,6.9,0.5,10,0.5,10s0,3.1,0.4,4.6c0.2,0.8,0.9,1.5,1.7,1.7c1.5,0.4,7.4,0.4,7.4,0.4s5.9,0,7.4-0.4c0.8-0.2,1.5-0.9,1.7-1.7
	c0.4-1.5,0.4-4.6,0.4-4.6S19.5,6.9,19.1,5.4z M8.1,12.8V7.2L13,10L8.1,12.8z"/>
</svg>

